PathFileType	4	(X/Y/Z)	Apose_0-50.trc
DataRate	CameraRate	NumFrames	NumMarkers	Units	OrigDataRate	OrigDataStartFrame	OrigNumFrames
30	30	7	22	m	30	40	50
Frame#	Time	Hip			RHip			RKnee			RAnkle			RBigToe			RSmallToe			RHeel			LHip			LKnee			LAnkle			LBigToe			LSmallToe			LHeel			Neck			Head			Nose			RShoulder			RElbow			RWrist			LShoulder			LElbow			LWrist		
		X1	Y1	Z1	X2	Y2	Z2	X3	Y3	Z3	X4	Y4	Z4	X5	Y5	Z5	X6	Y6	Z6	X7	Y7	Z7	X8	Y8	Z8	X9	Y9	Z9	X10	Y10	Z10	X11	Y11	Z11	X12	Y12	Z12	X13	Y13	Z13	X14	Y14	Z14	X15	Y15	Z15	X16	Y16	Z16	X17	Y17	Z17	X18	Y18	Z18	X19	Y19	Z19	X20	Y20	Z20	X21	Y21	Z21	X22	Y22	Z22
41	1.3666666666666667	0.04058395728033517	0.924686622805182	0.35482932379457	0.03216796356990514	0.8836807657928254	0.46208941272603904	0.0071049781645638405	0.5094116475013761	0.49598515151352884	-0.006368440186210971	0.11249767972257382	0.5145421330795845	0.1985530009539119	0.03594181892527594	0.5625390357029206	0.1502910135108453	0.031171612130438314	0.6260643165280046	-0.03869300607119374	0.036640131184568374	0.49959777720224874	0.03421049295471681	0.8839435758515212	0.24299322380945104	0.014526566134777274	0.5100040920281348	0.22187045115330495	0.006027390422522279	0.11675273804648602	0.2084097578905742	0.22084791064025894	0.04844937336674062	0.1865975989056221	0.1670927646721498	0.03622757017440211	0.12473978848873771	-0.051323993788118555	0.04549024491831898	0.20762114202122361	0.055853480915045925	1.5802786049923363	0.3433572370436006	0.19790301118823503	1.8121029369327628	0.33379374720904437	0.28598044812080103	1.6555248758572656	0.33958291059426	0.023096959809521842	1.4968018571502484	0.5279415317614418	0.0827638494021651	1.2380002570668125	0.7135495757138657	0.13039753954510167	1.0468188486187333	0.8872544659748084	0.01582624020803626	1.4847476732137923	0.14675999365060727	0.029002250587833577	1.2286901303771538	0.00029362974791117386	0.07845386276154113	1.0190866318429606	-0.14939971905979227
42	1.4	0.04113553008381082	0.9249408054753517	0.35515875269005637	0.03225831990797616	0.8842620628920682	0.4624127151537768	0.007368876614589254	0.509733022476292	0.49614399416562993	-0.005454536441211954	0.1116535071245426	0.5145124355909432	0.19950495816437733	0.03675400922468458	0.5631165778119133	0.1499775284482651	0.031624653168278095	0.6261820456992142	-0.03731925390414162	0.03573965896105855	0.4987904265550558	0.034628799843544424	0.8842026653207444	0.24300540677418517	0.014970324723628263	0.5105884101703733	0.22209693909286765	0.00605560307917871	0.11747570840456967	0.2082682168405385	0.22062913461399958	0.04875677033907216	0.1867452665874179	0.16704006424463352	0.036763078105540754	0.124967035748797	-0.05143925200372579	0.045698390221039546	0.2072755594962874	0.05643119851219519	1.580758159046711	0.3435199580400087	0.1979738774335838	1.8156616488113526	0.3290062358578884	0.2887519409623864	1.6617896431023893	0.33503710286128846	0.023240648918778757	1.4966877388298545	0.5276494883955135	0.08374110087754302	1.2381024917011065	0.7129634264680007	0.13229530576723525	1.046334687216924	0.8864604430782987	0.01630393589155528	1.4849151429257113	0.14688942717001077	0.0293491029723277	1.228421947525519	8.18089628173522e-05	0.07816490789695654	1.0184398072715728	-0.15036635035624746
43	1.4333333333333331	0.041777437263327465	0.9249615111074627	0.35562822536142424	0.03230994452713287	0.8847285684256908	0.4629130785976918	0.007828426834988446	0.5099268114894312	0.49645674361220216	-0.004783855265488838	0.1108543836835763	0.5146444179029221	0.1997959136431217	0.03720800323479965	0.5633914845306089	0.1492914091453767	0.032124806063551274	0.626291761225954	-0.03597412761181239	0.034955039624564185	0.49807819916993545	0.03512946915793006	0.8841575653344224	0.24329047503848372	0.01564423706949458	0.5112144613067475	0.22263992315758824	0.0059489111150085984	0.11829375622632236	0.20813052282387817	0.22030561318788777	0.04893232609520306	0.18681266022659543	0.1667561644325593	0.037189152361239756	0.1251582966981079	-0.050728456653826616	0.04801285948316823	0.20605009784161166	0.0566653696684068	1.5811583168079633	0.34389838156398145	0.201015406879021	1.8179688483541434	0.3228161670172328	0.28626479445732356	1.6650963340239646	0.33163612237079887	0.023315199031139613	1.496494771207974	0.5276112545043123	0.08444361856017292	1.2382475009291245	0.7124592576498517	0.13439319823930296	1.0458744614882658	0.8855578452736814	0.016512800983039425	1.485043135508863	0.14701356539101382	0.02980051936107568	1.2281264747007878	-4.6313604015368526e-05	0.07781568296543481	1.0178488072387362	-0.1511949166340677
44	1.4666666666666666	0.04245908040917767	0.9247129514081937	0.3561481139877285	0.03241857977887004	0.8850248704793238	0.4635546135065548	0.008516918809771354	0.5100204405338172	0.49683997595716384	-0.0044270158664744185	0.11027157936633639	0.514893316370178	0.1991748175985433	0.037267577224334075	0.5631865582893902	0.14833353083287074	0.03263457741894052	0.6263399724303136	-0.034966341549890964	0.034515176103662025	0.4976747138271884	0.035689051752540064	0.8837945247146514	0.24383115096898686	0.016463195933630482	0.5118205034693313	0.22346511224541188	0.005738846011754879	0.11901778832029845	0.20806433673872507	0.21996323168494766	0.049047198536512605	0.1867617246243062	0.1662956221433645	0.03751621470546814	0.12534540414166628	-0.049637863281040105	0.05156875022870639	0.20439525402678194	0.05669060432510513	1.5814800780917557	0.3444470502132088	0.20530037239991542	1.819419339794536	0.3166368281444098	0.2788808307291123	1.6656831900648799	0.32977658985559666	0.023441795992502755	1.4962294263007605	0.5278896775004002	0.08496862933149311	1.2384128767805689	0.7120497052590226	0.1365696713448722	1.045533419369912	0.8846509814578247	0.01640500003575232	1.4851172579546503	0.14718884050196218	0.030322894452746434	1.227807836183624	-9.319853103375606e-05	0.07780612365518468	1.0175753954051487	-0.15167540642933813
45	1.5	0.0431340377686864	0.9242642796685061	0.35664272957628645	0.03269547338375565	0.8851255627389129	0.4642181229680938	0.009381444521154367	0.5100400811514121	0.49716706873685557	-0.004404212435981367	0.11013226216211619	0.5152393730383537	0.19779998446373198	0.03703136095708145	0.5625299421858609	0.14730253799797027	0.0330870397306888	0.6263189449337048	-0.03450716200382485	0.034563666788382366	0.4975997649441064	0.03629031363061416	0.8832369260113496	0.24453835612719949	0.017314117592409476	0.5122993019733815	0.22441551093258255	0.005514544386786221	0.11954899819922982	0.2081415120540132	0.21970268711262098	0.04916992717244042	0.18653973805707938	0.16577097351927542	0.037728042019497976	0.1255574559053461	-0.04864377392430701	0.05513158610216904	0.20294502700059114	0.05662616613499355	1.5817387482841443	0.3450350295747237	0.20886196404283616	1.8203707365540989	0.31191913583550207	0.26814063181160014	1.664194291924446	0.3291674482170704	0.023670915729605925	1.4959016501131295	0.5284851312646511	0.08540386661796155	1.238525076493907	0.7117240147881094	0.13862904333051831	1.0453739153834813	0.8838290668784972	0.016046479472465087	1.4851508952333532	0.14744021396479132	0.030865840188996355	1.22747457639504	-0.00010124024646477068	0.07825318069261275	1.0176459396450483	-0.15186787260677817
46	1.5333333333333334	0.04376765416984663	0.9237721818640883	0.3570520550760659	0.033227835501203354	0.88498756657951	0.46469846694368555	0.010280489584190235	0.5099627363462633	0.49737665717947116	-0.004733603631853241	0.11061648337535139	0.515652741124338	0.19619623884391416	0.03659261608154096	0.561633531319174	0.14644745684275817	0.03336456537341783	0.6262699291851379	-0.034811992088312066	0.035207997534919065	0.49781323967563634	0.03693056041205496	0.8826549155887106	0.2452666095768641	0.018121519027101855	0.5125007801066221	0.22524365793551943	0.005276009265599729	0.12004161536239155	0.20835050188566334	0.21960603503276996	0.04928723062571296	0.18614136133343123	0.1652922920558553	0.037725125548405264	0.1258254172189452	-0.04788305966895948	0.057823940995418176	0.2021121630552348	0.05643261712878166	1.58193354583651	0.3453895085451829	0.2102417853288938	1.821073794667051	0.30933496955686274	0.25658195555336977	1.6616854728182684	0.32932973078344224	0.023992861037150138	1.495521595671692	0.5293516926242878	0.08585693060251495	1.238452167968275	0.711504969683358	0.14037785010493584	1.0453860537296722	0.8831203133469727	0.015570328879498826	1.4851318383762528	0.14775906338602743	0.03139367894494048	1.2271269532662157	-0.0001544282669261613	0.07897099408443498	1.0178318746532826	-0.15203262814317872
47	1.5666666666666669	0.044320891287380274	0.9234034491988836	0.35733217491319325	0.034043540814920455	0.88452174622363	0.46479751545442094	0.011053063411614977	0.5097099618385236	0.49747325824241245	-0.005478556775147505	0.11187400061445009	0.5160570529967433	0.19528101673331116	0.03617194688344813	0.5609879604193049	0.14600967219963326	0.033358300945676635	0.6262271695268389	-0.036139565774563454	0.03661526539386422	0.49832198687246027	0.03758334428700206	0.8821466956019559	0.24588600964726098	0.018889226567214375	0.5122484313312816	0.2256882194990932	0.004895009308605345	0.12085236822316665	0.20858467649658877	0.2197074672105293	0.049331456720249994	0.18565648050291056	0.1649194144386752	0.037355286166963146	0.12618811418862433	-0.047144170120442246	0.059400408587851956	0.20193714997028112	0.05587827378013996	1.5820568326821902	0.345184526396271	0.20798944827736346	1.82175633732848	0.30926371575783146	0.2465770578729738	1.6591944639131568	0.3295591271832996	0.024433085273902023	1.4950778405404743	0.5304676660854767	0.08651207870231321	1.2380192207247296	0.7114871164828732	0.14166528496479536	1.0455205147104767	0.8824971565981568	0.015068243109210368	1.4850295287838808	0.14811777750088567	0.031863856394832614	1.2267518004313933	-0.00037021398140033636	0.07979114042625093	1.0178293010278017	-0.15240771160444366
